<svg version="1.1" id="Layer_1" xmlns="http://www.w3.org/2000/svg" xmlns:xlink="http://www.w3.org/1999/xlink" x="0px" y="0px"
	 width="100%" viewBox="0 0 1200 1200" enable-background="new 0 0 1200 1200" xml:space="preserve">
<path fill="#4CD4CA" opacity="1.000000" stroke="none" 
	d="
M694.000000,1201.000000 
	C464.166656,1201.000000 234.833328,1200.989502 5.500042,1201.093628 
	C1.750800,1201.095215 0.906084,1200.249023 0.907021,1196.500000 
	C1.006199,799.500000 1.006199,402.500000 0.907021,5.500023 
	C0.906084,1.750933 1.750933,0.906086 5.500023,0.907022 
	C402.500000,1.006185 799.500000,1.006186 1196.500000,0.907022 
	C1200.249023,0.906086 1201.093994,1.750932 1201.093140,5.500023 
	C1200.993896,402.500000 1200.993896,799.500000 1201.093140,1196.500000 
	C1201.093994,1200.249023 1200.249268,1201.096313 1196.500000,1201.093872 
	C1029.166626,1200.985474 861.833313,1201.000000 694.000000,1201.000000 
z"/>
<path fill="#020303" opacity="1.000000" stroke="none" 
	d="
M527.185852,598.242065 
	C529.772949,578.872864 532.382263,559.955505 534.905823,541.026672 
	C539.120422,509.413757 543.277161,477.793091 547.465881,446.176697 
	C548.251160,440.249359 549.111816,434.331696 549.849060,428.398560 
	C550.033081,426.917480 550.270874,425.963135 552.126038,425.973389 
	C563.599670,426.036835 575.073914,426.005280 586.761658,426.005280 
	C580.210449,468.808868 573.677124,511.146362 567.263306,553.501892 
	C561.099304,594.208313 555.013062,634.926758 549.051392,675.663147 
	C548.572876,678.932983 547.046021,679.212036 544.418091,679.198975 
	C529.419312,679.124390 514.419128,679.076904 499.421570,679.230103 
	C496.208771,679.262939 495.288452,678.190735 494.824158,675.063293 
	C487.960358,628.825867 480.948944,582.610291 473.944427,536.393799 
	C468.610565,501.200623 463.318237,466.000641 457.773376,430.840637 
	C457.115723,426.670624 458.032379,425.813965 462.032471,425.911865 
	C472.525574,426.168671 483.031891,426.132446 493.526764,425.914490 
	C496.549286,425.851746 497.527161,426.829712 497.898682,429.680084 
	C502.886780,467.947388 507.963470,506.203156 513.024841,544.460938 
	C516.405640,570.015686 519.796997,595.569031 524.170166,621.256104 
	C525.169983,613.733582 526.169800,606.211121 527.185852,598.242065 
z"/>
<path fill="#020303" opacity="1.000000" stroke="none" 
	d="
M749.090027,499.075409 
	C753.826843,482.619720 758.584656,466.589081 763.044373,450.475952 
	C763.994812,447.041870 765.145508,446.416138 768.485962,447.579865 
	C774.259521,449.591187 780.198975,451.165710 786.138611,452.642761 
	C788.725464,453.286041 789.067688,454.000275 788.289612,456.671265 
	C768.940735,523.090698 749.737427,589.552490 730.493774,656.002563 
	C728.348206,663.411499 728.315979,663.373596 720.841187,661.080505 
	C716.251038,659.672302 711.679016,658.154358 707.008606,657.077454 
	C704.054077,656.396240 703.858887,655.235229 704.643188,652.559937 
	C712.743347,624.927856 720.698669,597.253357 728.701294,569.592712 
	C735.464172,546.217346 742.236450,522.844788 749.090027,499.075409 
z"/>
<path fill="#020303" opacity="1.000000" stroke="none" 
	d="
M684.889038,499.932556 
	C693.162415,494.221191 701.131714,488.704132 709.828308,482.683594 
	C709.828308,494.428619 709.808289,505.200378 709.843140,515.971985 
	C709.851318,518.490112 707.763489,519.227966 706.232788,520.295898 
	C689.947693,531.657776 673.611633,542.946533 656.886230,554.534851 
	C665.404846,560.629089 673.710388,566.604858 682.052368,572.529297 
	C690.459961,578.500427 698.912659,584.408203 707.321594,590.377441 
	C708.500244,591.214111 709.848083,591.932678 709.841309,593.784119 
	C709.801270,604.712280 709.821594,615.640625 709.821594,627.640686 
	C702.940918,622.832886 696.843628,618.636597 690.812500,614.347229 
	C664.106812,595.354004 637.476379,576.253845 610.662354,557.414978 
	C606.894226,554.767639 606.969788,553.739563 610.644775,551.223206 
	C635.364258,534.297302 659.953552,517.181274 684.889038,499.932556 
z"/>
<path fill="#020303" opacity="1.000000" stroke="none" 
	d="
M829.045532,538.032227 
	C837.743225,544.088806 846.177002,549.897339 855.356628,556.219543 
	C820.614136,580.745605 786.260803,604.996887 751.607239,629.460205 
	C750.692688,625.745544 752.277832,623.211792 753.056274,620.597900 
	C756.188477,610.080505 759.573853,599.638550 762.706116,589.121216 
	C763.416565,586.735840 764.595886,585.077454 766.648499,583.670593 
	C778.580505,575.492188 790.360718,567.090637 802.357361,559.009583 
	C805.537109,556.867737 805.201355,556.024292 802.233887,554.112671 
	C795.284058,549.635559 788.637695,544.688843 781.710693,540.174316 
	C779.274353,538.586487 778.324097,537.303284 779.345825,534.208557 
	C781.585388,527.425171 783.245178,520.451416 785.179016,513.565796 
	C786.686890,508.197388 786.717468,508.196655 791.423157,511.504639 
	C803.878784,520.260498 816.329163,529.023865 829.045532,538.032227 
z"/>
</svg>